<svg id="Logo" xmlns="http://www.w3.org/2000/svg" viewBox="0 0 264.97 200"><defs><style>.cls-1{fill:#d81e06;}</style></defs><title>logo_II</title><path class="cls-1" d="M189.48,67.55V97.84a10,10,0,0,0,8.42,9.86,50,50,0,0,1,41.58,50.15C239,184.9,215.71,207,188.66,207H149.48a10,10,0,0,1-10-10V67a10,10,0,0,0-10-10H95.75a15,15,0,0,0-10.67,4.46L29,118.28a15,15,0,0,0-4.33,10.5l-.12,46.1a5,5,0,0,0,8.53,3.55L81,130.54a5,5,0,0,1,8.53,3.53V247a10,10,0,0,0,10,10h88.75c54.59,0,100.85-44.65,101.25-99.24a100,100,0,0,0-88.8-100.14A10,10,0,0,0,189.48,67.55Z" transform="translate(-24.52 -57)"/></svg>