<svg id="图层_2" data-name="图层 2" xmlns="http://www.w3.org/2000/svg" viewBox="0 0 343.54 337.15"><defs><style>.cls-1{fill:#d81e06;}</style></defs><title>logo</title><path class="cls-1" d="M251.32,32H236.59l-27.77-.52H118.39a8.54,8.54,0,0,0-7.67,4.78A343.39,343.39,0,0,1,74.6,82.45a442.74,442.74,0,0,1-41,38.92c-.82.67-3.65,3.59-4.78,4.76a1.69,1.69,0,0,0-.48,1.18l-.08,43.42a4.44,4.44,0,0,0,7.57,3.11l54.12-54.12c7.77-7.77,14.13-5.14,14.13,5.85V269.69h0a1.7,1.7,0,0,1-2.09,1.66,59.87,59.87,0,0,0-14.22-1.66c-32.82,0-58.38,21.32-58.38,48.92s25.56,50,58.38,50,57.34-22.37,57.34-50V285.75a1.69,1.69,0,0,1,1.67-1.7l43.56-.68h20c17.88,0,20-.41,34.71,0,75.74,2.1,126.76-52.27,126.76-125.18S321.62,32.56,251.32,32Zm9.77,192.24a14.8,14.8,0,0,1-2.73.29l-32.86.5H215a14.69,14.69,0,0,1-14.69-14.69V105A14.69,14.69,0,0,1,215,90.34H225.5l32.86.5a14,14,0,0,1,2.73.29c27.7,6,47.56,37.32,47.56,66.53S288.79,218.18,261.09,224.19Z" transform="translate(-28.23 -31.43)"/></svg>